<svg height="1182" width="720" xmlns="http://www.w3.org/2000/svg">
<rect height="1182" fill="#555" width="720"></rect>
<text fill="#7f7" font-family="Courier New" font-size="12" xml:space="preserve">
<tspan x="10" y="26">7 megabytes installed</tspan>
<tspan x="10" y="42"></tspan>
<tspan x="10" y="58">node_modules</tspan>
<tspan x="10" y="74">└─┬ codeceptjs@0.6.3-pre </tspan>
<tspan x="10" y="90">  ├─┬ chalk@1.1.3 </tspan>
<tspan x="10" y="106">  │ ├── ansi-styles@2.2.1 </tspan>
<tspan x="10" y="122">  │ ├── has-ansi@2.0.0 </tspan>
<tspan x="10" y="138">  │ ├── strip-ansi@3.0.1 </tspan>
<tspan x="10" y="154">  │ └── supports-color@2.0.0 </tspan>
<tspan x="10" y="170">  ├── co@4.6.0 </tspan>
<tspan x="10" y="186">  ├─┬ commander@2.9.0 </tspan>
<tspan x="10" y="202">  │ └── graceful-readlink@1.0.1 </tspan>
<tspan x="10" y="218">  ├── escape-string-regexp@1.0.5 </tspan>
<tspan x="10" y="234">  ├── get-parameter-names@0.3.0 </tspan>
<tspan x="10" y="250">  ├─┬ glob@6.0.4 </tspan>
<tspan x="10" y="266">  │ ├─┬ inflight@1.0.6 </tspan>
<tspan x="10" y="282">  │ │ └── wrappy@1.0.2 </tspan>
<tspan x="10" y="298">  │ ├── inherits@2.0.3 </tspan>
<tspan x="10" y="314">  │ ├─┬ minimatch@3.0.3 </tspan>
<tspan x="10" y="330">  │ │ └─┬ brace-expansion@1.1.7 </tspan>
<tspan x="10" y="346">  │ │   ├── balanced-match@0.4.2 </tspan>
<tspan x="10" y="362">  │ │   └── concat-map@0.0.1 </tspan>
<tspan x="10" y="378">  │ ├── once@1.4.0 </tspan>
<tspan x="10" y="394">  │ └── path-is-absolute@1.0.1 </tspan>
<tspan x="10" y="410">  ├─┬ inquirer@0.11.4 </tspan>
<tspan x="10" y="426">  │ ├── ansi-escapes@1.4.0 </tspan>
<tspan x="10" y="442">  │ ├── ansi-regex@2.1.1 </tspan>
<tspan x="10" y="458">  │ ├─┬ cli-cursor@1.0.2 </tspan>
<tspan x="10" y="474">  │ │ └─┬ restore-cursor@1.0.1 </tspan>
<tspan x="10" y="490">  │ │   ├── exit-hook@1.1.1 </tspan>
<tspan x="10" y="506">  │ │   └── onetime@1.1.0 </tspan>
<tspan x="10" y="522">  │ ├── cli-width@1.1.1 </tspan>
<tspan x="10" y="538">  │ ├─┬ figures@1.7.0 </tspan>
<tspan x="10" y="554">  │ │ └── object-assign@4.1.1 </tspan>
<tspan x="10" y="570">  │ ├── lodash@3.10.1 </tspan>
<tspan x="10" y="586">  │ ├─┬ readline2@1.0.1 </tspan>
<tspan x="10" y="602">  │ │ ├── code-point-at@1.1.0 </tspan>
<tspan x="10" y="618">  │ │ ├─┬ is-fullwidth-code-point@1.0.0 </tspan>
<tspan x="10" y="634">  │ │ │ └── number-is-nan@1.0.1 </tspan>
<tspan x="10" y="650">  │ │ └── mute-stream@0.0.5 </tspan>
<tspan x="10" y="666">  │ ├── run-async@0.1.0 </tspan>
<tspan x="10" y="682">  │ ├── rx-lite@3.1.2 </tspan>
<tspan x="10" y="698">  │ ├── string-width@1.0.2 </tspan>
<tspan x="10" y="714">  │ └── through@2.3.8 </tspan>
<tspan x="10" y="730">  ├─┬ mkdirp@0.5.1 </tspan>
<tspan x="10" y="746">  │ └── minimist@0.0.8 </tspan>
<tspan x="10" y="762">  ├─┬ mocha@3.2.0 </tspan>
<tspan x="10" y="778">  │ ├── browser-stdout@1.3.0 </tspan>
<tspan x="10" y="794">  │ ├─┬ debug@2.2.0 </tspan>
<tspan x="10" y="810">  │ │ └── ms@0.7.1 </tspan>
<tspan x="10" y="826">  │ ├── diff@1.4.0 </tspan>
<tspan x="10" y="842">  │ ├─┬ glob@7.0.5 </tspan>
<tspan x="10" y="858">  │ │ └── fs.realpath@1.0.0 </tspan>
<tspan x="10" y="874">  │ ├── growl@1.9.2 </tspan>
<tspan x="10" y="890">  │ ├── json3@3.3.2 </tspan>
<tspan x="10" y="906">  │ ├─┬ lodash.create@3.1.1 </tspan>
<tspan x="10" y="922">  │ │ ├─┬ lodash._baseassign@3.2.0 </tspan>
<tspan x="10" y="938">  │ │ │ ├── lodash._basecopy@3.0.1 </tspan>
<tspan x="10" y="954">  │ │ │ └─┬ lodash.keys@3.1.2 </tspan>
<tspan x="10" y="970">  │ │ │   ├── lodash._getnative@3.9.1 </tspan>
<tspan x="10" y="986">  │ │ │   ├── lodash.isarguments@3.1.0 </tspan>
<tspan x="10" y="1002">  │ │ │   └── lodash.isarray@3.0.4 </tspan>
<tspan x="10" y="1018">  │ │ ├── lodash._basecreate@3.0.3 </tspan>
<tspan x="10" y="1034">  │ │ └── lodash._isiterateecall@3.0.9 </tspan>
<tspan x="10" y="1050">  │ └─┬ supports-color@3.1.2 </tspan>
<tspan x="10" y="1066">  │   └── has-flag@1.0.0 </tspan>
<tspan x="10" y="1082">  └─┬ requireg@0.1.6 </tspan>
<tspan x="10" y="1098">    ├─┬ rc@1.0.3 </tspan>
<tspan x="10" y="1114">    │ ├── deep-extend@0.2.11 </tspan>
<tspan x="10" y="1130">    │ ├── ini@1.3.4 </tspan>
<tspan x="10" y="1146">    │ └── strip-json-comments@0.1.3 </tspan>
<tspan x="10" y="1162">    └── resolve@0.6.3</tspan>
</text>
</svg>
